# xmcd
#
# Track frame offsets:
#	150
#	15471
#	32994
#	50713
#	67846
#	87094
#	99600
#	120512
#	140242
#	152670
#	164284
#	177969
#	197227
#	225452
#
# Disc length: 3182 seconds
#
# Revision: 0
# Processed by: cddbd v1.5.2PL0 Copyright (c) Steve Scherf et al.
# Submitted via: dBpowerAMP V4.0
#
DISCID=b60c6c0e
DTITLE=Divers Artist - Kerstsongs 2006
DYEAR=2006
DGENRE=Gospel 
TTITLE0=Hoor de engelen zingen d'eer - Kees Kraaijenoord
TTITLE1=Noël Noël - Ariën en Bart Vink
TTITLE2=Stille Nacht Heilige Nacht - Tylio Lobman
TTITLE3=Licht in de nacht - Gerald Troost
TTITLE4=Komt allen tezamen - Rob Favier
TTITLE5=Ik kniel aan Uw kribbe neer - Wim Bevelander
TTITLE6=Ere zij God - Martin Brand
TTITLE7=Geef mij adem (Maria's lied) - Reni and Elisa
TTITLE8=God zegene de kinderen - Stonewashed
TTITLE9=Daarginds in de Kribbe - Orville
TTITLE10=De avond voor Kerstmis - Annemieke Koelewijn
TTITLE11=Eer zij God in onze dagen (Gloria in excelsis Deo) - Inside Out
TTITLE12=De Kern van Kerst (Gesproken) - Jan Willem Roodbeen
TTITLE13=Kerstverhaal Lucas 2 vrs 56 (Gesproken) - Jan Willem Roodbeen
EXTD=
EXTT0=
EXTT1=
EXTT2=
EXTT3=
EXTT4=
EXTT5=
EXTT6=
EXTT7=
EXTT8=
EXTT9=
EXTT10=
EXTT11=
EXTT12=
EXTT13=
PLAYORDER=
